<svg width="965" height="613" viewBox="0 0 965 613" fill="none" xmlns="http://www.w3.org/2000/svg">
<g clip-path="url(#clip0_47_413)">
<rect width="965" height="613" rx="10" fill="url(#paint0_linear_47_413)"/>
<rect x="352" width="260" height="244" fill="url(#paint1_linear_47_413)"/>
<rect x="353" y="233" width="260" height="179" fill="url(#paint2_linear_47_413)"/>
<rect x="353" y="412" width="260" height="201" fill="url(#paint3_linear_47_413)"/>
<rect x="595" width="369.332" height="613" rx="10" fill="url(#paint4_linear_47_413)"/>
<path d="M842.859 606.19L762.009 513.542L870.985 486.485L842.859 606.19Z" fill="#4CB3AF"/>
<circle cx="663.792" cy="471" r="22" fill="#4DB5AB"/>
<rect x="924.938" y="393" width="32.7187" height="32.7187" transform="rotate(19.9168 924.938 393)" fill="#4EB1B6"/>
<rect x="667.305" y="221" width="18.4485" height="8.51468" transform="rotate(10.2302 667.305 221)" fill="#4DB5AE"/>
<path d="M944.613 0L795.793 85.5L964.793 184V8.5C963.98 2.80059 962.375 0.683142 956.216 0H944.613Z" fill="#4EAFBA"/>
<rect width="369.332" height="613" rx="10" fill="url(#paint5_linear_47_413)"/>
<rect x="287.146" y="70" width="32.7187" height="32.7187" transform="rotate(19.9168 287.146 70)" fill="#4CB7A8"/>
<rect x="277.316" y="485" width="31.1358" height="14.3703" transform="rotate(30.606 277.316 485)" fill="#4DB9A3"/>
<path d="M365.556 258L369 261.912V316.686L338 325L365.556 258Z" fill="#4DB9A5"/>
<path d="M0 606.432V447C73.0185 492.107 92.9792 531.224 108 614H8.5C3.44261 613.628 1.60162 611.933 0 606.432Z" fill="#4CBF9A"/>
<rect x="517" y="105.908" width="48" height="44" transform="rotate(-31.2594 517 105.908)" fill="#4CB7A8"/>
<path d="M540.29 490.805L498.902 552.647L469.878 514.88L540.29 490.805Z" fill="#4CB3AF"/>
<circle cx="534.5" cy="306.5" r="60.5" fill="#4DB5AB"/>
</g>
<defs>
<linearGradient id="paint0_linear_47_413" x1="482.5" y1="0" x2="482.5" y2="613" gradientUnits="userSpaceOnUse">
<stop stop-color="white"/>
<stop offset="1" stop-color="white" stop-opacity="0"/>
</linearGradient>
<linearGradient id="paint1_linear_47_413" x1="655.5" y1="122" x2="352.596" y2="108.559" gradientUnits="userSpaceOnUse">
<stop stop-color="#3AA9AA"/>
<stop offset="0.947917" stop-color="#3AAF9F"/>
</linearGradient>
<linearGradient id="paint2_linear_47_413" x1="642" y1="294" x2="353.049" y2="297.727" gradientUnits="userSpaceOnUse">
<stop stop-color="#3AACA5"/>
<stop offset="1" stop-color="#39B19A"/>
</linearGradient>
<linearGradient id="paint3_linear_47_413" x1="557" y1="470.9" x2="358.43" y2="530.571" gradientUnits="userSpaceOnUse">
<stop stop-color="#3AAF9F"/>
<stop offset="1" stop-color="#38B493"/>
</linearGradient>
<linearGradient id="paint4_linear_47_413" x1="779.666" y1="0" x2="779.666" y2="613" gradientUnits="userSpaceOnUse">
<stop stop-color="#3AA9AB"/>
<stop offset="0.755208" stop-color="#3AAF9F"/>
</linearGradient>
<linearGradient id="paint5_linear_47_413" x1="184.666" y1="0" x2="184.666" y2="613" gradientUnits="userSpaceOnUse">
<stop offset="0.255208" stop-color="#3AAF9F"/>
<stop offset="1" stop-color="#38B591"/>
</linearGradient>
<clipPath id="clip0_47_413">
<rect width="965" height="613" rx="10" fill="white"/>
</clipPath>
</defs>
</svg>
